<mxfile host="Electron" modified="2024-05-13T12:53:58.139Z" agent="Mozilla/5.0 (Windows NT 10.0; Win64; x64) AppleWebKit/537.36 (KHTML, like Gecko) draw.io/21.1.2 Chrome/106.0.5249.199 Electron/21.4.3 Safari/537.36" etag="Q7tiNlcKRrdXwyE1bQ8w" version="21.1.2" type="device">
  <diagram name="Page-1" id="HFzy6bxkJqNL8-My2172">
    <mxGraphModel dx="2127" dy="572" grid="1" gridSize="10" guides="1" tooltips="1" connect="1" arrows="1" fold="1" page="1" pageScale="1" pageWidth="827" pageHeight="1169" math="0" shadow="0">
      <root>
        <mxCell id="0" />
        <mxCell id="1" parent="0" />
        <mxCell id="gSXQWgKhhkNPLeqZEJGc-1" value="serverCM" style="shape=module;align=left;spacingLeft=20;align=center;verticalAlign=top;whiteSpace=wrap;html=1;" parent="1" vertex="1">
          <mxGeometry x="-70" y="60" width="100" height="50" as="geometry" />
        </mxCell>
        <mxCell id="gSXQWgKhhkNPLeqZEJGc-5" value="clientCM" style="shape=module;align=left;spacingLeft=20;align=center;verticalAlign=top;whiteSpace=wrap;html=1;" parent="1" vertex="1">
          <mxGeometry x="-330" y="60" width="100" height="50" as="geometry" />
        </mxCell>
        <mxCell id="fnN1wJ2KamLtPx0jiTRm-55" style="endArrow=block;startArrow=none;endFill=0;startFill=0;endSize=8;html=1;verticalAlign=bottom;dashed=1;labelBackgroundColor=none;rounded=0;" edge="1" parent="1" source="gSXQWgKhhkNPLeqZEJGc-12" target="hHeK6ofaZLI-R--lYShH-33">
          <mxGeometry relative="1" as="geometry">
            <Array as="points">
              <mxPoint x="-250" y="290" />
              <mxPoint x="-250" y="330" />
              <mxPoint x="-250" y="370" />
              <mxPoint x="-250" y="420" />
              <mxPoint x="-75" y="420" />
            </Array>
          </mxGeometry>
        </mxCell>
        <mxCell id="gSXQWgKhhkNPLeqZEJGc-9" value="&lt;b&gt;&lt;i&gt;API&lt;/i&gt;&lt;/b&gt;" style="swimlane;fontStyle=0;childLayout=stackLayout;horizontal=1;startSize=26;fillColor=none;horizontalStack=0;resizeParent=1;resizeParentMax=0;resizeLast=0;collapsible=1;marginBottom=0;whiteSpace=wrap;html=1;" parent="1" vertex="1">
          <mxGeometry x="-230" y="200" width="160" height="182" as="geometry" />
        </mxCell>
        <mxCell id="gSXQWgKhhkNPLeqZEJGc-10" value="interface &lt;b&gt;servicesCM&lt;/b&gt;" style="text;strokeColor=none;fillColor=none;align=left;verticalAlign=top;spacingLeft=4;spacingRight=4;overflow=hidden;rotatable=0;points=[[0,0.5],[1,0.5]];portConstraint=eastwest;whiteSpace=wrap;html=1;" parent="gSXQWgKhhkNPLeqZEJGc-9" vertex="1">
          <mxGeometry y="26" width="160" height="26" as="geometry" />
        </mxCell>
        <mxCell id="gSXQWgKhhkNPLeqZEJGc-11" value="class &lt;b&gt;CentroMonitoraggio&lt;/b&gt;" style="text;strokeColor=none;fillColor=none;align=left;verticalAlign=top;spacingLeft=4;spacingRight=4;overflow=hidden;rotatable=0;points=[[0,0.5],[1,0.5]];portConstraint=eastwest;whiteSpace=wrap;html=1;" parent="gSXQWgKhhkNPLeqZEJGc-9" vertex="1">
          <mxGeometry y="52" width="160" height="26" as="geometry" />
        </mxCell>
        <mxCell id="gSXQWgKhhkNPLeqZEJGc-12" value="class &lt;b&gt;Operatore&lt;/b&gt;" style="text;strokeColor=none;fillColor=none;align=left;verticalAlign=top;spacingLeft=4;spacingRight=4;overflow=hidden;rotatable=0;points=[[0,0.5],[1,0.5]];portConstraint=eastwest;whiteSpace=wrap;html=1;" parent="gSXQWgKhhkNPLeqZEJGc-9" vertex="1">
          <mxGeometry y="78" width="160" height="26" as="geometry" />
        </mxCell>
        <mxCell id="hHeK6ofaZLI-R--lYShH-3" value="class &lt;b&gt;ListaAree&lt;/b&gt;" style="text;strokeColor=none;fillColor=none;align=left;verticalAlign=top;spacingLeft=4;spacingRight=4;overflow=hidden;rotatable=0;points=[[0,0.5],[1,0.5]];portConstraint=eastwest;whiteSpace=wrap;html=1;" parent="gSXQWgKhhkNPLeqZEJGc-9" vertex="1">
          <mxGeometry y="104" width="160" height="26" as="geometry" />
        </mxCell>
        <mxCell id="hHeK6ofaZLI-R--lYShH-2" value="class &lt;b&gt;AreaGeografica&lt;/b&gt;" style="text;strokeColor=none;fillColor=none;align=left;verticalAlign=top;spacingLeft=4;spacingRight=4;overflow=hidden;rotatable=0;points=[[0,0.5],[1,0.5]];portConstraint=eastwest;whiteSpace=wrap;html=1;" parent="gSXQWgKhhkNPLeqZEJGc-9" vertex="1">
          <mxGeometry y="130" width="160" height="26" as="geometry" />
        </mxCell>
        <mxCell id="hHeK6ofaZLI-R--lYShH-1" value="class &lt;b&gt;Misurazione&lt;/b&gt;" style="text;strokeColor=none;fillColor=none;align=left;verticalAlign=top;spacingLeft=4;spacingRight=4;overflow=hidden;rotatable=0;points=[[0,0.5],[1,0.5]];portConstraint=eastwest;whiteSpace=wrap;html=1;" parent="gSXQWgKhhkNPLeqZEJGc-9" vertex="1">
          <mxGeometry y="156" width="160" height="26" as="geometry" />
        </mxCell>
        <mxCell id="hHeK6ofaZLI-R--lYShH-4" value="CentroMonitraggio" style="swimlane;fontStyle=1;align=center;verticalAlign=top;childLayout=stackLayout;horizontal=1;startSize=26;horizontalStack=0;resizeParent=1;resizeParentMax=0;resizeLast=0;collapsible=1;marginBottom=0;whiteSpace=wrap;html=1;" parent="1" vertex="1">
          <mxGeometry x="-500" y="470" width="210" height="282" as="geometry" />
        </mxCell>
        <mxCell id="hHeK6ofaZLI-R--lYShH-25" value="- nome: String" style="text;strokeColor=none;fillColor=none;align=left;verticalAlign=top;spacingLeft=4;spacingRight=4;overflow=hidden;rotatable=0;points=[[0,0.5],[1,0.5]];portConstraint=eastwest;whiteSpace=wrap;html=1;" parent="hHeK6ofaZLI-R--lYShH-4" vertex="1">
          <mxGeometry y="26" width="210" height="26" as="geometry" />
        </mxCell>
        <mxCell id="fnN1wJ2KamLtPx0jiTRm-79" value="- street: String" style="text;strokeColor=none;fillColor=none;align=left;verticalAlign=top;spacingLeft=4;spacingRight=4;overflow=hidden;rotatable=0;points=[[0,0.5],[1,0.5]];portConstraint=eastwest;whiteSpace=wrap;html=1;" vertex="1" parent="hHeK6ofaZLI-R--lYShH-4">
          <mxGeometry y="52" width="210" height="26" as="geometry" />
        </mxCell>
        <mxCell id="fnN1wJ2KamLtPx0jiTRm-80" value="- civic: int" style="text;strokeColor=none;fillColor=none;align=left;verticalAlign=top;spacingLeft=4;spacingRight=4;overflow=hidden;rotatable=0;points=[[0,0.5],[1,0.5]];portConstraint=eastwest;whiteSpace=wrap;html=1;" vertex="1" parent="hHeK6ofaZLI-R--lYShH-4">
          <mxGeometry y="78" width="210" height="26" as="geometry" />
        </mxCell>
        <mxCell id="fnN1wJ2KamLtPx0jiTRm-81" value="- zipcode: int" style="text;strokeColor=none;fillColor=none;align=left;verticalAlign=top;spacingLeft=4;spacingRight=4;overflow=hidden;rotatable=0;points=[[0,0.5],[1,0.5]];portConstraint=eastwest;whiteSpace=wrap;html=1;" vertex="1" parent="hHeK6ofaZLI-R--lYShH-4">
          <mxGeometry y="104" width="210" height="26" as="geometry" />
        </mxCell>
        <mxCell id="fnN1wJ2KamLtPx0jiTRm-82" value="- town: String" style="text;strokeColor=none;fillColor=none;align=left;verticalAlign=top;spacingLeft=4;spacingRight=4;overflow=hidden;rotatable=0;points=[[0,0.5],[1,0.5]];portConstraint=eastwest;whiteSpace=wrap;html=1;" vertex="1" parent="hHeK6ofaZLI-R--lYShH-4">
          <mxGeometry y="130" width="210" height="26" as="geometry" />
        </mxCell>
        <mxCell id="fnN1wJ2KamLtPx0jiTRm-83" value="- province: String" style="text;strokeColor=none;fillColor=none;align=left;verticalAlign=top;spacingLeft=4;spacingRight=4;overflow=hidden;rotatable=0;points=[[0,0.5],[1,0.5]];portConstraint=eastwest;whiteSpace=wrap;html=1;" vertex="1" parent="hHeK6ofaZLI-R--lYShH-4">
          <mxGeometry y="156" width="210" height="26" as="geometry" />
        </mxCell>
        <mxCell id="fnN1wJ2KamLtPx0jiTRm-84" value="- aree: ListaAree" style="text;strokeColor=none;fillColor=none;align=left;verticalAlign=top;spacingLeft=4;spacingRight=4;overflow=hidden;rotatable=0;points=[[0,0.5],[1,0.5]];portConstraint=eastwest;whiteSpace=wrap;html=1;" vertex="1" parent="hHeK6ofaZLI-R--lYShH-4">
          <mxGeometry y="182" width="210" height="26" as="geometry" />
        </mxCell>
        <mxCell id="hHeK6ofaZLI-R--lYShH-27" value="&lt;div&gt;	- &lt;b&gt;&lt;i&gt;serialVersionUID&lt;/i&gt;&lt;/b&gt;: long&lt;/div&gt;&lt;div&gt;&lt;br&gt;&lt;/div&gt;" style="text;strokeColor=none;fillColor=none;align=left;verticalAlign=top;spacingLeft=4;spacingRight=4;overflow=hidden;rotatable=0;points=[[0,0.5],[1,0.5]];portConstraint=eastwest;whiteSpace=wrap;html=1;" parent="hHeK6ofaZLI-R--lYShH-4" vertex="1">
          <mxGeometry y="208" width="210" height="26" as="geometry" />
        </mxCell>
        <mxCell id="hHeK6ofaZLI-R--lYShH-6" value="" style="line;strokeWidth=1;fillColor=none;align=left;verticalAlign=middle;spacingTop=-1;spacingLeft=3;spacingRight=3;rotatable=0;labelPosition=right;points=[];portConstraint=eastwest;strokeColor=inherit;" parent="hHeK6ofaZLI-R--lYShH-4" vertex="1">
          <mxGeometry y="234" width="210" height="8" as="geometry" />
        </mxCell>
        <mxCell id="hHeK6ofaZLI-R--lYShH-28" value="+ CentroMonitoraggio(nome: String, indirizzo: Indirizzo, lag: ListaAree)" style="text;strokeColor=none;fillColor=none;align=left;verticalAlign=top;spacingLeft=4;spacingRight=4;overflow=hidden;rotatable=0;points=[[0,0.5],[1,0.5]];portConstraint=eastwest;whiteSpace=wrap;html=1;" parent="hHeK6ofaZLI-R--lYShH-4" vertex="1">
          <mxGeometry y="242" width="210" height="40" as="geometry" />
        </mxCell>
        <mxCell id="hHeK6ofaZLI-R--lYShH-33" value="Operatore" style="swimlane;fontStyle=1;align=center;verticalAlign=top;childLayout=stackLayout;horizontal=1;startSize=26;horizontalStack=0;resizeParent=1;resizeParentMax=0;resizeLast=0;collapsible=1;marginBottom=0;whiteSpace=wrap;html=1;fillColor=none;" parent="1" vertex="1">
          <mxGeometry x="-240" y="470" width="330" height="256" as="geometry" />
        </mxCell>
        <mxCell id="hHeK6ofaZLI-R--lYShH-35" value="- uid: String" style="text;strokeColor=none;fillColor=none;align=left;verticalAlign=top;spacingLeft=4;spacingRight=4;overflow=hidden;rotatable=0;points=[[0,0.5],[1,0.5]];portConstraint=eastwest;whiteSpace=wrap;html=1;" parent="hHeK6ofaZLI-R--lYShH-33" vertex="1">
          <mxGeometry y="26" width="330" height="26" as="geometry" />
        </mxCell>
        <mxCell id="hHeK6ofaZLI-R--lYShH-34" value="- cf: String" style="text;strokeColor=none;fillColor=none;align=left;verticalAlign=top;spacingLeft=4;spacingRight=4;overflow=hidden;rotatable=0;points=[[0,0.5],[1,0.5]];portConstraint=eastwest;whiteSpace=wrap;html=1;" parent="hHeK6ofaZLI-R--lYShH-33" vertex="1">
          <mxGeometry y="52" width="330" height="26" as="geometry" />
        </mxCell>
        <mxCell id="hHeK6ofaZLI-R--lYShH-36" value="- nome: String" style="text;strokeColor=none;fillColor=none;align=left;verticalAlign=top;spacingLeft=4;spacingRight=4;overflow=hidden;rotatable=0;points=[[0,0.5],[1,0.5]];portConstraint=eastwest;whiteSpace=wrap;html=1;" parent="hHeK6ofaZLI-R--lYShH-33" vertex="1">
          <mxGeometry y="78" width="330" height="26" as="geometry" />
        </mxCell>
        <mxCell id="hHeK6ofaZLI-R--lYShH-37" value="- cognome: String" style="text;strokeColor=none;fillColor=none;align=left;verticalAlign=top;spacingLeft=4;spacingRight=4;overflow=hidden;rotatable=0;points=[[0,0.5],[1,0.5]];portConstraint=eastwest;whiteSpace=wrap;html=1;" parent="hHeK6ofaZLI-R--lYShH-33" vertex="1">
          <mxGeometry y="104" width="330" height="26" as="geometry" />
        </mxCell>
        <mxCell id="hHeK6ofaZLI-R--lYShH-38" value="&lt;div&gt;- email: String&lt;/div&gt;" style="text;strokeColor=none;fillColor=none;align=left;verticalAlign=top;spacingLeft=4;spacingRight=4;overflow=hidden;rotatable=0;points=[[0,0.5],[1,0.5]];portConstraint=eastwest;whiteSpace=wrap;html=1;" parent="hHeK6ofaZLI-R--lYShH-33" vertex="1">
          <mxGeometry y="130" width="330" height="26" as="geometry" />
        </mxCell>
        <mxCell id="hHeK6ofaZLI-R--lYShH-39" value="- centro: CentroMonitoraggio" style="text;strokeColor=none;fillColor=none;align=left;verticalAlign=top;spacingLeft=4;spacingRight=4;overflow=hidden;rotatable=0;points=[[0,0.5],[1,0.5]];portConstraint=eastwest;whiteSpace=wrap;html=1;" parent="hHeK6ofaZLI-R--lYShH-33" vertex="1">
          <mxGeometry y="156" width="330" height="26" as="geometry" />
        </mxCell>
        <mxCell id="fnN1wJ2KamLtPx0jiTRm-85" value="&lt;div&gt;	- &lt;b&gt;&lt;i&gt;serialVersionUID&lt;/i&gt;&lt;/b&gt;: long&lt;/div&gt;&lt;div&gt;&lt;br&gt;&lt;/div&gt;" style="text;strokeColor=none;fillColor=none;align=left;verticalAlign=top;spacingLeft=4;spacingRight=4;overflow=hidden;rotatable=0;points=[[0,0.5],[1,0.5]];portConstraint=eastwest;whiteSpace=wrap;html=1;" vertex="1" parent="hHeK6ofaZLI-R--lYShH-33">
          <mxGeometry y="182" width="330" height="26" as="geometry" />
        </mxCell>
        <mxCell id="hHeK6ofaZLI-R--lYShH-40" value="" style="line;strokeWidth=1;fillColor=none;align=left;verticalAlign=middle;spacingTop=-1;spacingLeft=3;spacingRight=3;rotatable=0;labelPosition=right;points=[];portConstraint=eastwest;strokeColor=inherit;" parent="hHeK6ofaZLI-R--lYShH-33" vertex="1">
          <mxGeometry y="208" width="330" height="8" as="geometry" />
        </mxCell>
        <mxCell id="hHeK6ofaZLI-R--lYShH-41" value="+ Operatore(cf: String, uid: String, nome: String, cognome: String, email: String, centro: CentoMonitoraggio)" style="text;strokeColor=none;fillColor=none;align=left;verticalAlign=top;spacingLeft=4;spacingRight=4;overflow=hidden;rotatable=0;points=[[0,0.5],[1,0.5]];portConstraint=eastwest;whiteSpace=wrap;html=1;" parent="hHeK6ofaZLI-R--lYShH-33" vertex="1">
          <mxGeometry y="216" width="330" height="40" as="geometry" />
        </mxCell>
        <mxCell id="hHeK6ofaZLI-R--lYShH-60" value="&lt;p style=&quot;margin:0px;margin-top:4px;text-align:center;&quot;&gt;&lt;i&gt;&amp;lt;&amp;lt;Interface&amp;gt;&amp;gt;&lt;/i&gt;&lt;br&gt;&lt;b&gt;ServicesCM&lt;/b&gt;&lt;/p&gt;&lt;hr size=&quot;1&quot;&gt;&lt;p style=&quot;margin:0px;margin-left:4px;&quot;&gt;+ &lt;b&gt;&lt;i&gt;PORT&lt;/i&gt;&lt;/b&gt;: int&lt;br&gt;&lt;/p&gt;&lt;hr size=&quot;1&quot;&gt;&lt;p style=&quot;margin:0px;margin-left:4px;&quot;&gt;+ cercaAreaGeografica(String name, String country): AreaGeografica&lt;/p&gt;&lt;p style=&quot;margin:0px;margin-left:4px;&quot;&gt;+ cercaAreaGeografica(long latitude, long longitude): AreaGeografica&lt;br&gt;&lt;/p&gt;&lt;p style=&quot;margin:0px;margin-left:4px;&quot;&gt;+ getAreaGeografica(int geoID): AreaGeografica&lt;br&gt;&lt;/p&gt;&lt;p style=&quot;margin:0px;margin-left:4px;&quot;&gt;+ visualizzaAreaGeografica(int geoID): Misurazione&lt;br&gt;&lt;/p&gt;&lt;p style=&quot;margin:0px;margin-left:4px;&quot;&gt;+ registrazione (Operatore operator, String password): Operatore&lt;/p&gt;&lt;p style=&quot;margin:0px;margin-left:4px;&quot;&gt;+ login (int userID, String password): Operatore&lt;br&gt;&lt;/p&gt;&lt;p style=&quot;margin:0px;margin-left:4px;&quot;&gt;+ registraCentroAree (String name, String street, int civic, int zipcode, String town,&lt;/p&gt;&lt;p style=&quot;margin:0px;margin-left:4px;&quot;&gt;&lt;span style=&quot;white-space: pre;&quot;&gt;	&lt;/span&gt;&lt;span style=&quot;white-space: pre;&quot;&gt;	&lt;/span&gt;&lt;span style=&quot;white-space: pre;&quot;&gt;	&lt;/span&gt;&lt;span style=&quot;white-space: pre;&quot;&gt;	&lt;/span&gt;&amp;nbsp; &amp;nbsp; String province, ListaAree areas): CentroMonitoraggio&lt;/p&gt;&lt;p style=&quot;margin:0px;margin-left:4px;&quot;&gt;+ alterListaAreeCentro (CentroMonitoraggio center, ListaAree newlist): boolean&lt;/p&gt;&lt;p style=&quot;margin:0px;margin-left:4px;&quot;&gt;+ inserisciParametriClimatici (Misurazione misurazione) : boolean&lt;/p&gt;" style="verticalAlign=top;align=left;overflow=fill;fontSize=12;fontFamily=Helvetica;html=1;whiteSpace=wrap;" parent="1" vertex="1">
          <mxGeometry x="-805" y="120" width="460" height="220" as="geometry" />
        </mxCell>
        <mxCell id="hHeK6ofaZLI-R--lYShH-61" value="«interface»&lt;br&gt;&lt;b&gt;AutoClosable&lt;/b&gt;" style="html=1;whiteSpace=wrap;" parent="1" vertex="1">
          <mxGeometry x="-630" y="20" width="110" height="50" as="geometry" />
        </mxCell>
        <mxCell id="hHeK6ofaZLI-R--lYShH-62" value="Use" style="endArrow=open;endSize=12;dashed=1;html=1;rounded=0;entryX=0.5;entryY=1;entryDx=0;entryDy=0;exitX=0.5;exitY=0;exitDx=0;exitDy=0;" parent="1" target="hHeK6ofaZLI-R--lYShH-61" edge="1" source="hHeK6ofaZLI-R--lYShH-60">
          <mxGeometry width="160" relative="1" as="geometry">
            <mxPoint x="-245" y="410" as="sourcePoint" />
            <mxPoint x="-245.29" y="300" as="targetPoint" />
          </mxGeometry>
        </mxCell>
        <mxCell id="fnN1wJ2KamLtPx0jiTRm-1" value="&lt;b&gt;AreaGeografica&lt;/b&gt;" style="swimlane;fontStyle=0;childLayout=stackLayout;horizontal=1;startSize=26;fillColor=none;horizontalStack=0;resizeParent=1;resizeParentMax=0;resizeLast=0;collapsible=1;marginBottom=0;whiteSpace=wrap;html=1;" vertex="1" parent="1">
          <mxGeometry x="350" y="176" width="270" height="206" as="geometry" />
        </mxCell>
        <mxCell id="fnN1wJ2KamLtPx0jiTRm-2" value="- latitudine: double" style="text;strokeColor=none;fillColor=none;align=left;verticalAlign=top;spacingLeft=4;spacingRight=4;overflow=hidden;rotatable=0;points=[[0,0.5],[1,0.5]];portConstraint=eastwest;whiteSpace=wrap;html=1;" vertex="1" parent="fnN1wJ2KamLtPx0jiTRm-1">
          <mxGeometry y="26" width="270" height="26" as="geometry" />
        </mxCell>
        <mxCell id="fnN1wJ2KamLtPx0jiTRm-3" value="- longitudine: double" style="text;strokeColor=none;fillColor=none;align=left;verticalAlign=top;spacingLeft=4;spacingRight=4;overflow=hidden;rotatable=0;points=[[0,0.5],[1,0.5]];portConstraint=eastwest;whiteSpace=wrap;html=1;" vertex="1" parent="fnN1wJ2KamLtPx0jiTRm-1">
          <mxGeometry y="52" width="270" height="26" as="geometry" />
        </mxCell>
        <mxCell id="fnN1wJ2KamLtPx0jiTRm-4" value="- stato: String" style="text;strokeColor=none;fillColor=none;align=left;verticalAlign=top;spacingLeft=4;spacingRight=4;overflow=hidden;rotatable=0;points=[[0,0.5],[1,0.5]];portConstraint=eastwest;whiteSpace=wrap;html=1;" vertex="1" parent="fnN1wJ2KamLtPx0jiTRm-1">
          <mxGeometry y="78" width="270" height="26" as="geometry" />
        </mxCell>
        <mxCell id="fnN1wJ2KamLtPx0jiTRm-5" value="- denominazione: String" style="text;strokeColor=none;fillColor=none;align=left;verticalAlign=top;spacingLeft=4;spacingRight=4;overflow=hidden;rotatable=0;points=[[0,0.5],[1,0.5]];portConstraint=eastwest;whiteSpace=wrap;html=1;" vertex="1" parent="fnN1wJ2KamLtPx0jiTRm-1">
          <mxGeometry y="104" width="270" height="26" as="geometry" />
        </mxCell>
        <mxCell id="fnN1wJ2KamLtPx0jiTRm-88" value="&lt;div&gt;	- &lt;b&gt;&lt;i&gt;serialVersionUID&lt;/i&gt;&lt;/b&gt;: long&lt;/div&gt;&lt;div&gt;&lt;br&gt;&lt;/div&gt;" style="text;strokeColor=none;fillColor=none;align=left;verticalAlign=top;spacingLeft=4;spacingRight=4;overflow=hidden;rotatable=0;points=[[0,0.5],[1,0.5]];portConstraint=eastwest;whiteSpace=wrap;html=1;" vertex="1" parent="fnN1wJ2KamLtPx0jiTRm-1">
          <mxGeometry y="130" width="270" height="26" as="geometry" />
        </mxCell>
        <mxCell id="fnN1wJ2KamLtPx0jiTRm-6" value="" style="line;strokeWidth=1;fillColor=none;align=left;verticalAlign=middle;spacingTop=-1;spacingLeft=3;spacingRight=3;rotatable=0;labelPosition=right;points=[];portConstraint=eastwest;strokeColor=inherit;" vertex="1" parent="fnN1wJ2KamLtPx0jiTRm-1">
          <mxGeometry y="156" width="270" height="8" as="geometry" />
        </mxCell>
        <mxCell id="fnN1wJ2KamLtPx0jiTRm-7" value="+ AreaGeografica(latitudine: double, longitudine: double, stato: String, denominazione: String)" style="text;strokeColor=none;fillColor=none;align=left;verticalAlign=top;spacingLeft=4;spacingRight=4;overflow=hidden;rotatable=0;points=[[0,0.5],[1,0.5]];portConstraint=eastwest;whiteSpace=wrap;html=1;" vertex="1" parent="fnN1wJ2KamLtPx0jiTRm-1">
          <mxGeometry y="164" width="270" height="42" as="geometry" />
        </mxCell>
        <mxCell id="fnN1wJ2KamLtPx0jiTRm-18" value="&lt;div&gt;Misurazione&lt;/div&gt;" style="swimlane;fontStyle=1;align=center;verticalAlign=top;childLayout=stackLayout;horizontal=1;startSize=26;horizontalStack=0;resizeParent=1;resizeParentMax=0;resizeLast=0;collapsible=1;marginBottom=0;whiteSpace=wrap;html=1;fillColor=none;" vertex="1" parent="1">
          <mxGeometry x="130" y="406" width="260" height="236" as="geometry" />
        </mxCell>
        <mxCell id="fnN1wJ2KamLtPx0jiTRm-19" value="- dato: DatoGeografico" style="text;strokeColor=none;fillColor=none;align=left;verticalAlign=top;spacingLeft=4;spacingRight=4;overflow=hidden;rotatable=0;points=[[0,0.5],[1,0.5]];portConstraint=eastwest;whiteSpace=wrap;html=1;" vertex="1" parent="fnN1wJ2KamLtPx0jiTRm-18">
          <mxGeometry y="26" width="260" height="26" as="geometry" />
        </mxCell>
        <mxCell id="fnN1wJ2KamLtPx0jiTRm-20" value="- time: LocalDateTime" style="text;strokeColor=none;fillColor=none;align=left;verticalAlign=top;spacingLeft=4;spacingRight=4;overflow=hidden;rotatable=0;points=[[0,0.5],[1,0.5]];portConstraint=eastwest;whiteSpace=wrap;html=1;" vertex="1" parent="fnN1wJ2KamLtPx0jiTRm-18">
          <mxGeometry y="52" width="260" height="26" as="geometry" />
        </mxCell>
        <mxCell id="fnN1wJ2KamLtPx0jiTRm-21" value="- operatore: Operatore" style="text;strokeColor=none;fillColor=none;align=left;verticalAlign=top;spacingLeft=4;spacingRight=4;overflow=hidden;rotatable=0;points=[[0,0.5],[1,0.5]];portConstraint=eastwest;whiteSpace=wrap;html=1;" vertex="1" parent="fnN1wJ2KamLtPx0jiTRm-18">
          <mxGeometry y="78" width="260" height="26" as="geometry" />
        </mxCell>
        <mxCell id="fnN1wJ2KamLtPx0jiTRm-22" value="&lt;div&gt;- centro: CentroMonitoraggio&lt;br&gt;&lt;/div&gt;" style="text;strokeColor=none;fillColor=none;align=left;verticalAlign=top;spacingLeft=4;spacingRight=4;overflow=hidden;rotatable=0;points=[[0,0.5],[1,0.5]];portConstraint=eastwest;whiteSpace=wrap;html=1;" vertex="1" parent="fnN1wJ2KamLtPx0jiTRm-18">
          <mxGeometry y="104" width="260" height="26" as="geometry" />
        </mxCell>
        <mxCell id="fnN1wJ2KamLtPx0jiTRm-23" value="- area: AreaGeografica" style="text;strokeColor=none;fillColor=none;align=left;verticalAlign=top;spacingLeft=4;spacingRight=4;overflow=hidden;rotatable=0;points=[[0,0.5],[1,0.5]];portConstraint=eastwest;whiteSpace=wrap;html=1;" vertex="1" parent="fnN1wJ2KamLtPx0jiTRm-18">
          <mxGeometry y="130" width="260" height="26" as="geometry" />
        </mxCell>
        <mxCell id="fnN1wJ2KamLtPx0jiTRm-86" value="&lt;div&gt;	- &lt;b&gt;&lt;i&gt;serialVersionUID&lt;/i&gt;&lt;/b&gt;: long&lt;/div&gt;&lt;div&gt;&lt;br&gt;&lt;/div&gt;" style="text;strokeColor=none;fillColor=none;align=left;verticalAlign=top;spacingLeft=4;spacingRight=4;overflow=hidden;rotatable=0;points=[[0,0.5],[1,0.5]];portConstraint=eastwest;whiteSpace=wrap;html=1;" vertex="1" parent="fnN1wJ2KamLtPx0jiTRm-18">
          <mxGeometry y="156" width="260" height="26" as="geometry" />
        </mxCell>
        <mxCell id="fnN1wJ2KamLtPx0jiTRm-24" value="" style="line;strokeWidth=1;fillColor=#FF0000;align=left;verticalAlign=middle;spacingTop=-1;spacingLeft=3;spacingRight=3;rotatable=0;labelPosition=right;points=[];portConstraint=eastwest;strokeColor=inherit;" vertex="1" parent="fnN1wJ2KamLtPx0jiTRm-18">
          <mxGeometry y="182" width="260" height="8" as="geometry" />
        </mxCell>
        <mxCell id="fnN1wJ2KamLtPx0jiTRm-25" value="+ Misurazione(dato: DatoGeografico, operatore: Operatore,&amp;nbsp; area: AreaGeografica)" style="text;strokeColor=none;fillColor=none;align=left;verticalAlign=top;spacingLeft=4;spacingRight=4;overflow=hidden;rotatable=0;points=[[0,0.5],[1,0.5]];portConstraint=eastwest;whiteSpace=wrap;html=1;" vertex="1" parent="fnN1wJ2KamLtPx0jiTRm-18">
          <mxGeometry y="190" width="260" height="46" as="geometry" />
        </mxCell>
        <mxCell id="fnN1wJ2KamLtPx0jiTRm-34" value="ListaAree" style="swimlane;fontStyle=1;align=center;verticalAlign=top;childLayout=stackLayout;horizontal=1;startSize=26;horizontalStack=0;resizeParent=1;resizeParentMax=0;resizeLast=0;collapsible=1;marginBottom=0;whiteSpace=wrap;html=1;fillColor=none;" vertex="1" parent="1">
          <mxGeometry x="70" y="140" width="210" height="60" as="geometry" />
        </mxCell>
        <mxCell id="fnN1wJ2KamLtPx0jiTRm-87" value="&lt;div&gt;	- &lt;b&gt;&lt;i&gt;serialVersionUID&lt;/i&gt;&lt;/b&gt;: long&lt;/div&gt;&lt;div&gt;&lt;br&gt;&lt;/div&gt;" style="text;strokeColor=none;fillColor=none;align=left;verticalAlign=top;spacingLeft=4;spacingRight=4;overflow=hidden;rotatable=0;points=[[0,0.5],[1,0.5]];portConstraint=eastwest;whiteSpace=wrap;html=1;" vertex="1" parent="fnN1wJ2KamLtPx0jiTRm-34">
          <mxGeometry y="26" width="210" height="26" as="geometry" />
        </mxCell>
        <mxCell id="fnN1wJ2KamLtPx0jiTRm-37" value="" style="line;strokeWidth=1;fillColor=none;align=left;verticalAlign=middle;spacingTop=-1;spacingLeft=3;spacingRight=3;rotatable=0;labelPosition=right;points=[];portConstraint=eastwest;strokeColor=inherit;" vertex="1" parent="fnN1wJ2KamLtPx0jiTRm-34">
          <mxGeometry y="52" width="210" height="8" as="geometry" />
        </mxCell>
        <mxCell id="fnN1wJ2KamLtPx0jiTRm-53" style="endArrow=block;startArrow=none;endFill=0;startFill=0;endSize=8;html=1;verticalAlign=bottom;dashed=1;labelBackgroundColor=none;rounded=0;entryX=0.5;entryY=1;entryDx=0;entryDy=0;" edge="1" parent="1" source="gSXQWgKhhkNPLeqZEJGc-10" target="hHeK6ofaZLI-R--lYShH-60">
          <mxGeometry relative="1" as="geometry">
            <mxPoint x="-360" y="280" as="targetPoint" />
            <Array as="points">
              <mxPoint x="-310" y="240" />
              <mxPoint x="-310" y="370" />
              <mxPoint x="-575" y="370" />
            </Array>
          </mxGeometry>
        </mxCell>
        <mxCell id="fnN1wJ2KamLtPx0jiTRm-54" style="endArrow=block;startArrow=none;endFill=0;startFill=0;endSize=8;html=1;verticalAlign=bottom;dashed=1;labelBackgroundColor=none;rounded=0;" edge="1" parent="1" source="gSXQWgKhhkNPLeqZEJGc-11">
          <mxGeometry relative="1" as="geometry">
            <mxPoint x="-390" y="470" as="targetPoint" />
            <Array as="points">
              <mxPoint x="-280" y="265" />
              <mxPoint x="-280" y="310" />
              <mxPoint x="-280" y="360" />
              <mxPoint x="-280" y="400" />
              <mxPoint x="-390" y="400" />
            </Array>
          </mxGeometry>
        </mxCell>
        <mxCell id="fnN1wJ2KamLtPx0jiTRm-56" style="endArrow=block;startArrow=none;endFill=0;startFill=0;endSize=8;html=1;verticalAlign=bottom;dashed=1;labelBackgroundColor=none;rounded=0;entryX=0.5;entryY=0;entryDx=0;entryDy=0;" edge="1" parent="1" source="hHeK6ofaZLI-R--lYShH-1" target="fnN1wJ2KamLtPx0jiTRm-18">
          <mxGeometry relative="1" as="geometry">
            <Array as="points">
              <mxPoint x="-50" y="370" />
              <mxPoint x="260" y="370" />
            </Array>
          </mxGeometry>
        </mxCell>
        <mxCell id="fnN1wJ2KamLtPx0jiTRm-57" style="endArrow=block;startArrow=none;endFill=0;startFill=0;endSize=8;html=1;verticalAlign=bottom;dashed=1;labelBackgroundColor=none;rounded=0;exitX=1;exitY=0.5;exitDx=0;exitDy=0;" edge="1" parent="1" source="hHeK6ofaZLI-R--lYShH-3" target="fnN1wJ2KamLtPx0jiTRm-34">
          <mxGeometry relative="1" as="geometry">
            <mxPoint x="-50" y="317" as="sourcePoint" />
            <Array as="points">
              <mxPoint x="60" y="317" />
              <mxPoint x="60" y="240" />
              <mxPoint x="175" y="240" />
            </Array>
          </mxGeometry>
        </mxCell>
        <mxCell id="fnN1wJ2KamLtPx0jiTRm-58" style="endArrow=block;startArrow=none;endFill=0;startFill=0;endSize=8;html=1;verticalAlign=bottom;dashed=1;labelBackgroundColor=none;rounded=0;entryX=0.5;entryY=0;entryDx=0;entryDy=0;" edge="1" parent="1" source="hHeK6ofaZLI-R--lYShH-2" target="fnN1wJ2KamLtPx0jiTRm-1">
          <mxGeometry relative="1" as="geometry">
            <mxPoint x="480" y="170" as="targetPoint" />
            <Array as="points">
              <mxPoint x="80" y="340" />
              <mxPoint x="80" y="260" />
              <mxPoint x="220" y="260" />
              <mxPoint x="320" y="260" />
              <mxPoint x="320" y="140" />
              <mxPoint x="400" y="140" />
              <mxPoint x="485" y="140" />
              <mxPoint x="485" y="160" />
            </Array>
          </mxGeometry>
        </mxCell>
        <mxCell id="fnN1wJ2KamLtPx0jiTRm-70" value="" style="endArrow=open;html=1;rounded=0;align=center;verticalAlign=bottom;dashed=1;endFill=0;labelBackgroundColor=none;exitX=0.5;exitY=0;exitDx=0;exitDy=0;entryX=0.5;entryY=0;entryDx=0;entryDy=0;" edge="1" parent="1" source="gSXQWgKhhkNPLeqZEJGc-5" target="gSXQWgKhhkNPLeqZEJGc-1">
          <mxGeometry relative="1" as="geometry">
            <mxPoint x="-220" y="70" as="sourcePoint" />
            <mxPoint x="-60" y="70" as="targetPoint" />
            <Array as="points">
              <mxPoint x="-280" y="40" />
              <mxPoint x="-20" y="40" />
            </Array>
          </mxGeometry>
        </mxCell>
        <mxCell id="fnN1wJ2KamLtPx0jiTRm-71" value="" style="resizable=0;html=1;align=center;verticalAlign=top;labelBackgroundColor=none;" connectable="0" vertex="1" parent="fnN1wJ2KamLtPx0jiTRm-70">
          <mxGeometry relative="1" as="geometry" />
        </mxCell>
        <mxCell id="fnN1wJ2KamLtPx0jiTRm-72" value="" style="endArrow=open;html=1;rounded=0;align=center;verticalAlign=bottom;dashed=1;endFill=0;labelBackgroundColor=none;entryX=0.5;entryY=1;entryDx=0;entryDy=0;exitX=0.5;exitY=1;exitDx=0;exitDy=0;" edge="1" parent="1" source="gSXQWgKhhkNPLeqZEJGc-1" target="gSXQWgKhhkNPLeqZEJGc-5">
          <mxGeometry relative="1" as="geometry">
            <mxPoint x="-100" y="130" as="sourcePoint" />
            <mxPoint x="-50" y="80" as="targetPoint" />
            <Array as="points">
              <mxPoint x="-20" y="130" />
              <mxPoint x="-150" y="130" />
              <mxPoint x="-280" y="130" />
            </Array>
          </mxGeometry>
        </mxCell>
        <mxCell id="fnN1wJ2KamLtPx0jiTRm-73" value="" style="resizable=0;html=1;align=center;verticalAlign=top;labelBackgroundColor=none;" connectable="0" vertex="1" parent="fnN1wJ2KamLtPx0jiTRm-72">
          <mxGeometry relative="1" as="geometry" />
        </mxCell>
        <mxCell id="fnN1wJ2KamLtPx0jiTRm-77" value="" style="html=1;verticalAlign=bottom;labelBackgroundColor=none;endArrow=open;endFill=0;dashed=1;rounded=0;entryX=0.5;entryY=0;entryDx=0;entryDy=0;" edge="1" parent="1" target="gSXQWgKhhkNPLeqZEJGc-9">
          <mxGeometry width="160" relative="1" as="geometry">
            <mxPoint x="-150" y="40" as="sourcePoint" />
            <mxPoint x="-120" y="150" as="targetPoint" />
            <Array as="points">
              <mxPoint x="-150" y="40" />
            </Array>
          </mxGeometry>
        </mxCell>
      </root>
    </mxGraphModel>
  </diagram>
</mxfile>
